<svg data-name="Group 8355" xmlns="http://www.w3.org/2000/svg" width="344.111" height="58.343">
          <path
            d="M49.716 0A7.609 7.609 0 1055.1 2.229 7.61 7.61 0 0049.716 0zM43.153 17.763h13.122v39.903H43.153zM58.989 2.16h13.119v55.507H58.989zM74.822 2.16h13.119v55.507H74.822zM229.136 21.883v-4.115h-13.122v39.906h13.122V38.648c0-4.891 2.562-7.531 7.221-7.531h1.557V17.374c-3.966.161-6.837 1.4-8.778 4.509zM190.936 58.3a20.071 20.071 0 01-6.711-1.131 18.456 18.456 0 01-5.7-3.23 19.25 19.25 0 01-6.585-11.829 20.27 20.27 0 01-19.833 16.08h-.2a20.269 20.269 0 01-19.721-16.47 20.764 20.764 0 01-6.235 11.834 17.749 17.749 0 01-5.371 3.43 16.713 16.713 0 01-6.315 1.233h-.274a14.7 14.7 0 01-10.285-4.2v3.649H90.817v-55.5h13.122v17.625a15.215 15.215 0 018.478-2.574c.2 0 .4 0 .6.012a19.8 19.8 0 016.8 1.176 18.536 18.536 0 015.713 3.326 18.976 18.976 0 014.235 5.175 21.218 21.218 0 012.368 6.722 20.275 20.275 0 0119.838-16.74h.132a20.266 20.266 0 0119.927 16.485 20.1 20.1 0 016.311-11.762 18.482 18.482 0 0112.442-4.48c3.271 0 7.573 1.68 9.395 3.67v-2.968H213.3v18.185c0 .787-.006 1.473-.018 2.1.012.621.018 1.307.018 2.1v17.458h-13.125v-2.252a16.228 16.228 0 01-9.239 2.876zm-79.308-28a7.609 7.609 0 107.609 7.609 7.616 7.616 0 00-7.609-7.609zm79.907-.368a7.608 7.608 0 107.609 7.609 7.608 7.608 0 00-7.609-7.612zm-39.418-.238a7.609 7.609 0 107.609 7.609 7.617 7.617 0 00-7.609-7.612zM256.967 58.211h-.267a16.744 16.744 0 01-7.076-1.562 18.056 18.056 0 01-5.8-4.3 21.421 21.421 0 01-5.37-14.478 23.075 23.075 0 011.5-8.37 19.5 19.5 0 014.132-6.528 19 19 0 0113.848-5.755q.3-.012.6-.012a15.212 15.212 0 018.482 2.574V2.155h13.132v55.51h-12.893v-3.649a14.718 14.718 0 01-10.289 4.2zm2.327-28.011a7.609 7.609 0 107.608 7.61 7.618 7.618 0 00-7.608-7.61zM23.177 58.22a14.71 14.71 0 01-10.288-4.2v3.649H0V2.166h13.122v17.625a15.215 15.215 0 018.478-2.574c.2 0 .4 0 .6.012a19 19 0 0113.847 5.754 19.516 19.516 0 014.133 6.528 23.1 23.1 0 011.507 8.37 21.414 21.414 0 01-5.36 14.475 18.056 18.056 0 01-5.8 4.3 16.718 16.718 0 01-7.077 1.562zM20.808 30.3a7.608 7.608 0 107.609 7.609 7.608 7.608 0 00-7.609-7.609z"
            fill="#101119"></path>
          <g data-name="Group 8354">
            <circle cx="28.37" cy="28.37" r="28.37" transform="translate(287.371 1.602)" fill="#cb001b"></circle>
            <path
              d="M299.145 42.128h-4.028v-20.87h3.542v1.982a6.611 6.611 0 015.072-2.361c.086 0 .178 0 .266.005l.16-.005a7.747 7.747 0 017.745 7.747c0 .129 0 .259-.01.388a7.744 7.744 0 01-7.348 8.12 7.14 7.14 0 01-.387.01h-.393a6.725 6.725 0 01-4.619-1.829v6.813zm4.3-17.391h-.013a4.3 4.3 0 10.014 8.606h.119a4.188 4.188 0 004.184-4.192v-.133a4.31 4.31 0 00-4.3-4.281zM323.183 21.121v3.644a4.068 4.068 0 00-1.406-.256c-2.325 0-4.567 2.134-4.567 5.665v6.6h-4.027V21.26h3.317v2.669a5.5 5.5 0 015.006-3.038 6.6 6.6 0 011.677.23zM331.631 37.146a8.668 8.668 0 01-6.076-2.285 8 8 0 01-2.373-5.844 8 8 0 012.374-5.846 9.218 9.218 0 0112.149 0 8 8 0 012.377 5.847 8 8 0 01-2.373 5.845 8.666 8.666 0 01-6.078 2.283zm0-12.409h-.014a4.3 4.3 0 00.015 8.606h.119a4.188 4.188 0 004.185-4.191v-.136a4.311 4.311 0 00-4.3-4.28z"
              fill="#fff"></path>
          </g>
        </svg>